<svg xmlns="http://www.w3.org/2000/svg" xmlns:xlink="http://www.w3.org/1999/xlink" style="vertical-align:-.755ex;margin-left:-.089ex" width="12.68ex" height="2.634ex" viewBox="-38.5 -809.3 5459.5 1134.2"><defs><path id="a" stroke-width="1" d="M23 287q1 3 2 8t5 22 10 31 15 33 20 30 26 22 33 9q75 0 96-64l10 9q62 55 118 55 65 0 102-47t37-114q0-108-76-199T249-10q-22 0-39 6-11 5-23 15t-19 17l-7 8q-1-1-22-87t-21-87q0-6 8-7t37-3h25q6-7 6-9t-3-18q-3-12-6-15t-13-4h-11q-9 0-34 1t-62 1q-70 0-89-2h-8q-7 7-7 11 2 27 13 35h20q34 1 39 12 3 6 61 239t61 247q1 5 1 14 0 41-25 41-22 0-37-28t-23-61-12-36q-2-2-16-2H29q-6 6-6 9zm155-185q22-76 74-76 30 0 58 23t46 58q18 34 36 108t19 110v6q0 74-61 74-11 0-22-3t-22-9-20-13-17-15-15-15-11-14-8-10l-3-4q0-1-3-14t-11-44-14-52q-26-106-26-110z"/><path id="b" stroke-width="1" d="M184 600q0 24 19 42t44 19q18 0 30-12t13-30q0-23-20-42t-44-20q-15 0-28 10t-14 33zM21 287q0 8 9 31t24 51 44 51 60 22q39 0 65-23t27-62q0-17-14-56t-40-105-42-113q-5-22-5-32 0-25 17-25 9 0 19 3t23 14 27 35 25 59q3 12 5 14t17 2q20 0 20-10 0-8-9-31t-25-51-45-50-62-22q-32 0-59 21T74 74q0 17 5 32t43 114q38 101 44 121t7 39q0 24-17 24h-2q-30 0-55-33t-38-84q-1-1-2-3t-1-3-2-2-3-1-4 0-8 0H27q-6 6-6 9z"/><path id="c" stroke-width="1" d="M78 35v25l16 43 43 18q28 0 50-25t23-88q0-35-9-68t-21-57-26-41-24-27-13-9q-4 0-13 9t-9 13q0 4 11 16t25 30 26 50 16 73V9l-1-1q-2-1-5-2t-6-3-9-2-12-1q-27 0-44 17z"/><path id="d" stroke-width="1" d="M33 157q0 101 76 192t171 92q60 0 92-52 1 1 5 6t11 11 16 12q34 24 46 24 4 0 7-3t3-5q0-9-69-285-71-284-71-288 0-8 45-9h25q6-8 6-9t-3-18q-4-13-10-19h-13q-31 2-108 2h-88q-14 0-17-1-14 0-14 8 0 3 2 15 4 16 7 19t20 3q48 0 58 7 8 5 28 88t21 85q0 1-7-3-48-39-100-39-55 0-97 40T33 157zm319 169q-23 79-75 79-35 0-67-31t-50-81q-29-79-41-164v-11q0-8-1-12 0-45 18-62t43-18q54 0 111 72l8 11 54 217z"/><path id="e" stroke-width="1" d="M84 250q0 122 82 200t194 89h17q16 0 42 1t50 0h99q15-8 15-20 0-9-13-19l-104-1q-111-1-137-6-49-12-87-36t-59-49-36-55-18-48-5-34v-2h444q15-8 15-20t-15-20H124v-2q0-21 10-51t33-65 64-64 97-41q27-6 138-7h104q13-10 13-20 0-12-15-20H446q-18 0-29-1-155 0-245 86-88 82-88 205z"/><path id="f" stroke-width="1" d="M94 250q0 69 10 131t23 107 37 88 38 67 42 52 33 34 25 21h17q14 0 14-9 0-3-17-21t-41-53-49-86-42-138-17-193 17-192 41-139 49-86 42-53 17-21q0-9-15-9h-16l-28 24q-94 85-137 212T94 250z"/><path id="g" stroke-width="1" d="M96 585q56 81 153 81 48 0 96-26t78-92q37-83 37-228 0-155-43-237-20-42-55-67t-61-31-51-7q-26 0-52 6t-61 32-55 67q-43 82-43 237 0 174 57 265zm225 12q-30 32-71 32-42 0-72-32-25-26-33-72t-8-192q0-158 8-208t36-79q28-30 69-30 40 0 68 30 29 30 36 84t8 203q0 145-8 191t-33 73z"/><path id="h" stroke-width="1" d="M213 578l-13-5q-14-5-40-10t-58-7H83v46h19q47 2 87 15t56 24 28 22q2 3 12 3 9 0 17-6V361l1-300q7-7 12-9t24-4 62-2h26V0h-11q-21 3-159 3-136 0-157-3H88v46h64q16 0 25 1t16 3 8 2 6 5 6 4v517z"/><path id="i" stroke-width="1" d="M22 710v40h137V-250H22v40h97v920H22z"/></defs><g fill="currentColor" stroke="currentColor" stroke-width="0" transform="scale(1 -1)"><use xlink:href="#a"/><use x="712" y="-213" transform="scale(.707)" xlink:href="#b"/><use x="847" xlink:href="#c"/><g transform="translate(1292)"><use xlink:href="#d"/><use x="631" y="-213" transform="scale(.707)" xlink:href="#b"/></g><use x="2361" xlink:href="#e"/><use x="3306" xlink:href="#f"/><use x="3696" xlink:href="#g"/><use x="4196" xlink:href="#c"/><use x="4641" xlink:href="#h"/><use x="5142" xlink:href="#i"/></g></svg>